<svg width="14" height="24" viewBox="0 0 14 24" fill="none" xmlns="http://www.w3.org/2000/svg">
<path d="M7.24963 6.39968C6.51634 6.39968 5.9747 6.54134 5.62472 6.82465L5.54972 6.89965C5.24973 7.1663 5.09974 7.56628 5.09974 8.09959C5.09974 8.54957 5.24973 8.89955 5.54972 9.14954L5.64971 9.22453C6.08303 9.57452 6.88299 9.93283 8.04959 10.2995C9.54952 10.7661 10.6578 11.2161 11.3744 11.6494L11.4994 11.7494C12.2327 12.2327 12.8077 12.8077 13.2243 13.4743L13.3493 13.5993C13.7826 14.3659 13.9993 15.2492 13.9993 16.2492C13.9993 17.8491 13.4493 19.149 12.3494 20.149C11.5328 20.8989 10.3995 21.4073 8.94955 21.6739V21.9989C8.94955 23.3322 8.29125 23.9988 6.97465 23.9988H6.94965C6.29968 24.0155 5.81637 23.8488 5.49972 23.4988C5.16641 23.1655 4.99975 22.6655 4.99975 21.9989V21.6739C3.53315 21.3906 2.38321 20.8489 1.54992 20.049L1.49992 19.999C1.01662 19.5323 0.59997 18.8907 0.249987 18.0741L0.224989 17.9991C0.0749961 17.6991 0 17.3158 0 16.8491C0 16.2992 0.166658 15.8325 0.499975 15.4492L0.624968 15.3242L0.749962 15.1992C1.09994 14.8326 1.56659 14.6493 2.14989 14.6493C2.99985 14.6493 3.64148 15.0159 4.07479 15.7492L4.12479 15.8492L4.14979 15.8992L4.29978 16.2992L4.32478 16.3742L4.34978 16.4992C4.39978 16.8325 4.54977 17.1325 4.79976 17.3991C5.3164 17.7991 6.03303 17.9991 6.94965 17.9991C7.83294 17.9991 8.5079 17.8241 8.97455 17.4741L8.94955 17.5241L9.09954 17.3991C9.43286 17.1158 9.59952 16.7492 9.59952 16.2992C9.59952 15.8825 9.44952 15.5492 9.14954 15.2992L9.09954 15.2492L9.07454 15.2242C8.62456 14.8243 7.89127 14.4659 6.87465 14.1493H6.69966C4.76643 13.5993 3.33316 12.891 2.39988 12.0244L2.24989 11.9494C1.21661 10.9494 0.699964 9.66618 0.699964 8.09959C0.699964 6.533 1.22494 5.2664 2.27489 4.29978H2.24989C2.98318 3.53315 3.98313 3.02485 5.24973 2.77486V1.9999C5.24973 0.666633 5.91637 0 7.24963 0C7.78294 0 8.24958 0.19999 8.64956 0.59997C9.04954 0.99995 9.24953 1.46659 9.24953 1.9999V2.72486C10.5495 3.04151 11.5827 3.64982 12.3494 4.54977V4.52477C13.0493 5.25807 13.4827 6.18302 13.6493 7.29963V7.34963L13.6993 7.74961V7.79961V7.8496C13.6993 9.28286 12.991 9.99949 11.5744 9.99949H11.5494C10.5161 10.0328 9.81617 9.48285 9.44952 8.34958L9.24953 7.69961L8.94955 7.17464C8.83289 7.12464 8.75789 7.04131 8.72456 6.92465C8.35791 6.57467 7.86627 6.39968 7.24963 6.39968Z" fill="#096714"/>
</svg>
