<svg width="1080" height="1080" viewBox="0 0 1080 1080" fill="none" xmlns="http://www.w3.org/2000/svg">
<path d="M82 50V48H88V40H80V46H78V40H50V46H48V40H40V48H46V50H40V78H46V80H40V88H48V82H50V88H78V82H80V88H88V80H82V78H88V50H82ZM82 46V42H86V46H82ZM76 42V48H80V52H86V76H80V80H76V86H52V80H48V76H42V52H48V48H52V42H76ZM86 82V86H82V82H86ZM42 46V42H46V46H42ZM46 82V86H42V82H46ZM52 76H50V78H52V76ZM52 50H50V52H52V50ZM78 76H76V78H78V76ZM74 54V44H54V54H44V74H54V84H74V74H84V54H74ZM78 50H76V52H78V50Z" fill="white"/>
<path d="M142 44V40H110V44H108V40H102V46H106V48H102V80H106V82H102V88H108V84H110V88H142V84H144V88H150V82H146V80H150V48H146V46H150V40H144V44H142ZM146 44V42H148V44H146ZM144 46V50H148V78H144V82H140V86H112V82H108V78H104V50H108V46H112V42H140V46H144ZM148 84V86H146V84H148ZM104 44V42H106V44H104ZM106 84V86H104V84H106ZM142 48H138V44H114V48H110V52H106V76H110V80H114V84H138V80H142V76H146V52H142V48Z" fill="white"/>
<path d="M202 40V44H200V40H176V44H174V40H164V50H168V52H164V76H168V78H164V88H174V84H176V88H200V84H202V88H212V78H208V76H212V52H208V50H212V40H202ZM204 48V42H210V48H204ZM202 46V50H206V54H210V74H206V78H202V82H198V86H178V82H174V78H170V74H166V54H170V50H174V46H178V42H198V46H202ZM210 80V86H204V80H210ZM166 48V42H172V48H166ZM172 80V86H166V80H172ZM196 48V44H180V48H176V52H172V56H168V72H172V76H176V80H180V84H196V80H200V76H204V72H208V56H204V52H200V48H196Z" fill="white"/>
<path d="M266 44V40H234V44H232V40H226V46H230V48H226V80H230V82H226V88H232V84H234V88H266V84H268V88H274V82H270V80H274V48H270V46H274V40H268V44H266ZM270 44V42H272V44H270ZM266 48V46H268V48H266ZM264 42V50H272V78H264V86H236V78H228V50H236V42H264ZM272 84V86H270V84H272ZM266 82V80H268V82H266ZM228 44V42H230V44H228ZM234 48H232V46H234V48ZM234 80V82H232V80H234ZM230 84V86H228V84H230ZM270 52H262V44H238V52H230V76H238V84H262V76H270V52Z" fill="white"/>
<path d="M324 44V40H300V44H298V40H288V50H292V52H288V76H292V78H288V88H298V84H300V88H324V84H326V88H336V78H332V76H336V52H332V50H336V40H326V44H324ZM332 48V44H328V42H334V48H332ZM322 42V46H330V54H334V74H330V82H322V86H302V82H294V74H290V54H294V46H302V42H322ZM334 80V86H328V84H332V80H334ZM290 48V42H296V44H292V48H290ZM292 80V84H296V86H290V80H292ZM320 48V44H304V48H296V56H292V72H296V80H304V84H320V80H328V72H332V56H328V48H320Z" fill="white"/>
<path d="M386 40V44H384V40H364V44H362V40H350V52H354V54H350V74H354V76H350V88H362V84H364V88H384V84H386V88H398V76H394V74H398V54H394V52H398V40H386ZM388 50V46H392V50H388ZM394 50V44H388V42H396V50H394ZM386 52H392V54H384V46H386V52ZM382 42V56H396V72H382V86H366V72H352V56H366V42H382ZM396 78V86H388V84H394V78H396ZM392 74V76H386V82H384V74H392ZM392 78V82H388V78H392ZM352 50V42H360V44H354V50H352ZM356 46H360V50H356V46ZM356 52H362V46H364V54H356V52ZM362 76H356V74H364V82H362V76ZM354 78V84H360V86H352V78H354ZM356 78H360V82H356V78ZM380 58V44H368V58H354V70H368V84H380V70H394V58H380Z" fill="white"/>
<path d="M450 40V44H446V50H444V40H432V50H430V44H426V40H414V52H418V56H424V58H414V70H424V72H418V76H414V88H426V84H430V78H432V88H444V78H446V84H450V88H462V76H458V72H452V70H462V58H452V56H458V52H462V40H450ZM452 44V42H460V50H458V44H452ZM450 46V50H448V46H450ZM452 50V46H456V50H452ZM442 52H446V56H450V60H460V68H450V72H446V76H442V86H434V76H430V72H426V68H416V60H426V56H430V52H434V42H442V52ZM448 54V52H450V54H448ZM456 52V54H452V52H456ZM460 78V86H452V84H458V78H460ZM450 74V76H448V74H450ZM452 76V74H456V76H452ZM448 82V78H450V82H448ZM456 78V82H452V78H456ZM416 50V42H424V44H418V50H416ZM428 46V50H426V46H428ZM420 50V46H424V50H420ZM424 52V54H420V52H424ZM426 54V52H428V54H426ZM428 74V76H426V74H428ZM420 76V74H424V76H420ZM424 78V82H420V78H424ZM426 82V78H428V82H426ZM424 84V86H416V78H418V84H424ZM444 54H440V44H436V54H432V58H428V62H418V66H428V70H432V74H436V84H440V74H444V70H448V66H458V62H448V58H444V54Z" fill="white"/>
<path d="M520 44V40H510V48H490V40H480V44H476V54H484V74H476V84H480V88H490V80H510V88H520V84H524V74H516V54H524V44H520ZM518 42V44H514V48H512V42H518ZM512 50H514V52H512V50ZM516 50H520V46H522V52H516V50ZM516 48V46H518V48H516ZM512 54H514V74H512V54ZM510 50V52H490V50H510ZM522 76V82H520V78H516V76H522ZM512 76H514V78H512V76ZM516 82V80H518V82H516ZM512 80H514V84H518V86H512V80ZM510 76V78H490V76H510ZM510 54V74H490V54H510ZM478 52V46H480V50H484V52H478ZM482 44V42H488V48H486V44H482ZM482 48V46H484V48H482ZM486 50H488V52H486V50ZM486 54H488V74H486V54ZM486 76H488V78H486V76ZM486 80H488V86H482V84H486V80ZM482 82V80H484V82H482ZM480 78V82H478V76H484V78H480ZM508 72V56H492V72H508Z" fill="white"/>
<path d="M84 104V102H44V104H50V106H44V112H42V106H40V146H42V140H44V146H50V148H44V150H84V148H78V146H84V140H86V146H88V106H86V112H84V106H78V104H84ZM78 112V108H82V112H78ZM76 104V114H86V138H76V148H52V138H42V114H52V104H76ZM82 140V144H78V140H82ZM46 112V108H50V112H46ZM50 140V144H46V140H50ZM74 116V106H54V116H44V136H54V146H74V136H84V116H74Z" fill="white"/>
<path d="M142 104V102H110V104H112V106H106V112H104V110H102V142H104V140H106V146H112V148H110V150H142V148H140V146H146V140H148V142H150V110H148V112H146V106H140V104H142ZM138 108H144V114H148V138H144V144H138V148H114V144H108V138H104V114H108V108H114V104H138V108ZM136 110V106H116V110H110V116H106V136H110V142H116V146H136V142H142V136H146V116H142V110H136Z" fill="white"/>
<path d="M200 106V102H176V106H168V114H164V138H168V146H176V150H200V146H208V138H212V114H208V106H200ZM200 108H206V114H204V110H200V108ZM200 112H202V114H200V112ZM198 104V116H210V136H198V148H178V136H166V116H178V104H198ZM200 138H202V140H200V138ZM204 138H206V144H200V142H204V138ZM176 110H172V114H170V108H176V110ZM174 112H176V114H174V112ZM170 138H172V142H176V144H170V138ZM174 138H176V140H174V138ZM196 118V106H180V118H168V134H180V146H196V134H208V118H196Z" fill="white"/>
<path d="M264 102V106H256V102H244V106H236V102H226V112H230V120H226V132H230V140H226V150H236V146H244V150H256V146H264V150H274V140H270V132H274V120H270V112H274V102H264ZM270 110V106H266V104H272V110H270ZM254 104V108H268V122H272V130H268V144H254V148H246V144H232V130H228V122H232V108H246V104H254ZM272 142V148H266V146H270V142H272ZM228 110V104H234V106H230V110H228ZM230 142V146H234V148H228V142H230ZM252 110V106H248V110H234V124H230V128H234V142H248V146H252V142H266V128H270V124H266V110H252Z" fill="white"/>
<path d="M330 104V102H294V104H296V106H292V110H290V108H288V144H290V142H292V146H296V148H294V150H330V148H328V146H332V142H334V144H336V108H334V110H332V106H328V104H330ZM326 106H324V114H332V112H334V140H332V138H324V146H326V148H298V146H300V138H292V140H290V112H292V114H300V106H298V104H326V106ZM326 112V108H330V112H326ZM330 140V144H326V140H330ZM294 112V108H298V112H294ZM298 140V144H294V140H298ZM322 116V106H302V116H292V136H302V146H322V136H332V116H322Z" fill="white"/>
<path d="M392 104V102H356V104H358V106H354V110H352V108H350V144H352V142H354V146H358V148H356V150H392V148H390V146H394V142H396V144H398V108H396V110H394V106H390V104H392ZM386 108H392V114H386V108ZM388 104V106H384V116H394V112H396V140H394V136H384V146H388V148H360V146H364V136H354V140H352V112H354V116H364V106H360V104H388ZM386 138H392V144H386V138ZM356 108H362V114H356V108ZM356 138H362V144H356V138ZM382 118V106H366V118H354V134H366V146H382V134H394V118H382Z" fill="white"/>
<path d="M452 102V106H448V102H428V106H424V102H414V112H418V116H414V136H418V140H414V150H424V146H428V150H448V146H452V150H462V140H458V136H462V116H458V112H462V102H452ZM454 108V104H460V110H456V118H460V134H456V142H460V148H454V144H446V148H430V144H422V148H416V142H420V134H416V118H420V110H416V104H422V108H430V104H446V108H454ZM444 110V106H432V110H422V120H418V132H422V142H432V146H444V142H454V132H458V120H454V110H444Z" fill="white"/>
<path d="M516 102V106H510V102H490V106H484V102H476V110H480V116H476V136H480V142H476V150H484V146H490V150H510V146H516V150H524V142H520V136H524V116H520V110H524V102H516ZM518 108V104H522V108H518V118H522V134H518V144H522V148H518V144H508V148H492V144H482V148H478V144H482V134H478V118H482V108H478V104H482V108H492V104H508V108H518ZM506 110V106H494V110H484V120H480V132H484V142H494V146H506V142H516V132H520V120H516V110H506Z" fill="white"/>
<path d="M88 164H40V212H88V164ZM42 166H86V210H42V166ZM84 168H44V208H84V168Z" fill="white"/>
<path d="M146 168V164H106V168H102V208H106V212H146V208H150V168H146ZM144 166V170H148V206H144V210H108V206H104V170H108V166H144ZM142 172V168H110V172H106V204H110V208H142V204H146V172H142ZM140 170V174H144V202H140V206H112V202H108V174H112V170H140ZM138 176V172H114V176H110V200H114V204H138V200H142V176H138Z" fill="white"/>
<path d="M168 212V208H164V212H168ZM164 164V168H168V164H164ZM212 212V208H208V212H212ZM206 170V164H170V170H164V206H170V212H206V206H212V170H206ZM206 174V172H210V204H206V202H202V206H204V210H172V206H174V202H170V204H166V172H170V174H174V170H172V166H204V170H202V174H206ZM208 176H200V168H176V176H168V200H176V208H200V200H208V176ZM208 164V168H212V164H208Z" fill="white"/>
<path d="M232 212V206H226V212H232ZM230 208V210H228V208H230ZM226 164V170H232V164H226ZM228 168V166H230V168H228ZM274 212V206H268V212H274ZM272 208V210H270V208H272ZM266 172V164H234V172H226V204H234V212H266V204H274V172H266ZM264 166V174H272V202H264V210H236V202H228V174H236V166H264ZM262 176V168H238V176H230V200H238V208H262V200H270V176H262ZM268 164V170H274V164H268ZM270 168V166H272V168H270Z" fill="white"/>
<path d="M330 164V166H328V164H296V166H294V164H288V170H290V172H288V204H290V206H288V212H294V210H296V212H328V210H330V212H336V206H334V204H336V172H334V170H336V164H330ZM332 168V166H334V168H332ZM328 168H330V170H332V172H328V168ZM326 166V174H334V202H326V210H298V202H290V174H298V166H326ZM334 208V210H332V208H334ZM332 204V206H330V208H328V204H332ZM290 168V166H292V168H290ZM294 168H296V172H292V170H294V168ZM292 206V204H296V208H294V206H292ZM292 208V210H290V208H292ZM332 176H324V168H300V176H292V200H300V208H324V200H332V176Z" fill="white"/>
<path d="M390 168V164H358V168H356V164H350V170H354V172H350V204H354V206H350V212H356V208H358V212H390V208H392V212H398V206H394V204H398V172H394V170H398V164H392V168H390ZM394 168V166H396V168H394ZM390 172V170H392V172H390ZM388 166V174H396V202H388V210H360V202H352V174H360V166H388ZM396 208V210H394V208H396ZM390 206V204H392V206H390ZM352 168V166H354V168H352ZM358 172H356V170H358V172ZM358 204V206H356V204H358ZM354 208V210H352V208H354ZM394 176H386V168H362V176H354V200H362V208H386V200H394V176Z" fill="white"/>
<path d="M454 164V166H422V164H414V172H416V204H414V212H422V210H454V212H462V204H460V172H462V164H454ZM456 170V166H460V170H456ZM454 168V172H458V204H454V208H422V204H418V172H422V168H454ZM460 206V210H456V206H460ZM416 170V166H420V170H416ZM420 206V210H416V206H420ZM456 174H452V170H424V174H420V202H424V206H452V202H456V174Z" fill="white"/>
<path d="M516 164V166H484V164H476V172H478V204H476V212H484V210H516V212H524V204H522V172H524V164H516ZM518 170V166H522V170H518ZM516 168V172H520V204H516V208H484V204H480V172H484V168H516ZM522 206V210H518V206H522ZM478 170V166H482V170H478ZM482 206V210H478V206H482ZM512 172H514V170H510V172H508V170H492V172H490V170H486V172H488V176H484V174H482V178H484V180H482V196H484V198H482V202H484V200H488V204H486V206H490V204H492V206H508V204H510V206H514V204H512V200H516V202H518V198H516V196H518V180H516V178H518V174H516V176H512V172Z" fill="white"/>
<path d="M88 274V226H40V274H88ZM80 228V230H78V228H80ZM80 234H82V238H86V262H82V266H80V268H76V272H52V268H48V266H46V262H42V238H46V234H48V232H52V228H76V232H80V234ZM84 236V234H86V236H84ZM82 232V228H86V232H82ZM86 268V272H82V268H86ZM86 264V266H84V264H86ZM78 272V270H80V272H78ZM42 232V228H46V232H42ZM42 236V234H44V236H42ZM50 228V230H48V228H50ZM44 264V266H42V264H44ZM48 272V270H50V272H48ZM46 268V272H42V268H46ZM78 236V234H74V230H54V234H50V236H48V240H44V260H48V264H50V266H54V270H74V266H78V264H80V260H84V240H80V236H78Z" fill="white"/>
<path d="M146 230V226H106V230H102V270H106V274H146V270H150V230H146ZM144 236V232H140V228H144V232H148V236H144ZM138 228V234H142V238H148V262H142V266H138V272H114V266H110V262H104V238H110V234H114V228H138ZM148 264V268H144V272H140V268H144V264H148ZM104 236V232H108V228H112V232H108V236H104ZM108 268H112V272H108V268H104V264H108V268ZM136 236V230H116V236H112V240H106V260H112V264H116V270H136V264H140V260H146V240H140V236H136Z" fill="white"/>
<path d="M212 274V226H164V274H212ZM202 230V228H210V236H208V230H202ZM200 228V232H206V238H210V262H206V268H200V272H176V268H170V262H166V238H170V232H176V228H200ZM210 264V272H202V270H208V264H210ZM166 236V228H174V230H168V236H166ZM168 270H174V272H166V264H168V270ZM198 234V230H178V234H172V240H168V260H172V266H178V270H198V266H204V260H208V240H204V234H198Z" fill="white"/>
<path d="M232 274V268H226V274H232ZM230 270V272H228V270H230ZM232 234H230V266H232V234ZM226 226V232H232V226H226ZM228 230V228H230V230H228ZM228 234H226V266H228V234ZM266 266V234H234V266H266ZM266 274V272H234V274H266ZM266 270V268H234V270H266ZM274 274V268H268V274H274ZM272 270V272H270V270H272ZM274 234H272V266H274V234ZM266 232V230H234V232H266ZM268 226V232H274V226H268ZM270 230V228H272V230H270ZM270 234H268V266H270V234ZM266 228V226H234V228H266Z" fill="white"/>
<path d="M326 226V230H298V226H288V236H292V264H288V274H298V270H326V274H336V264H332V236H336V226H326ZM332 230H328V228H334V234H332V230ZM326 232V234H298V232H326ZM328 234V232H330V234H328ZM328 236H330V264H328V236ZM334 266V272H328V270H332V266H334ZM328 268V266H330V268H328ZM326 266V268H298V266H326ZM326 236V264H298V236H326ZM290 234V228H296V230H292V234H290ZM294 232H296V234H294V232ZM294 236H296V264H294V236ZM294 268V266H296V268H294ZM296 270V272H290V266H292V270H296ZM324 262V238H300V262H324Z" fill="white"/>
<path d="M392 228V226H356V228H352V232H350V268H352V272H356V274H392V272H396V268H398V232H396V228H392ZM392 230H394V232H392V230ZM390 228V230H386V238H394V234H396V266H394V262H386V270H390V272H358V270H362V262H354V266H352V234H354V238H362V230H358V228H390ZM388 236V232H390V234H392V236H388ZM392 268H394V270H392V268ZM392 264V266H390V268H388V264H392ZM354 230H356V232H354V230ZM356 236V234H358V232H360V236H356ZM360 264V268H358V266H356V264H360ZM354 268H356V270H354V268ZM384 240V230H364V240H354V260H364V270H384V260H394V240H384Z" fill="white"/>
<path d="M462 274V226H414V274H462ZM454 228V234H460V266H454V272H422V266H416V234H422V228H454ZM456 228H460V232H456V228ZM456 268H460V272H456V268ZM416 228H420V232H416V228ZM416 268H420V272H416V268ZM452 236V230H424V236H418V264H424V270H452V264H458V236H452Z" fill="white"/>
<path d="M480 274H482V268H476V270H480V274ZM476 230V232H482V226H480V230H476ZM524 270V268H518V274H520V270H524ZM514 228V230H486V228H484V234H478V236H480V264H478V266H484V272H486V270H514V272H516V266H522V264H520V236H522V234H516V228H514ZM514 236H518V264H514V268H486V264H482V236H486V232H514V236ZM516 238H512V234H488V238H484V262H488V266H512V262H516V238ZM520 230V226H518V232H524V230H520Z" fill="white"/>
<path d="M790 600V606H788V602H784V600H776V602H774V600H700V602H772V604H778V602H782V604H786V608H792V602H796V600H790ZM772 594V596H700V598H774V596H776V598H784V596H788V592H790V598H796V596H792V590H786V594H782V596H778V594H772Z" fill="white"/>
<path d="M910 600V604H904V600H898V602H894V600H820V602H892V604H900V602H902V606H912V602H916V600H910ZM892 594V596H820V598H894V596H898V598H904V594H910V598H916V596H912V592H902V596H900V594H892Z" fill="white"/>
<path d="M1030 600V602H1028V606H1026V600H1020V602H1018V600H940V602H1016V604H1022V602H1024V608H1030V604H1032V602H1036V600H1030ZM1016 594V596H940V598H1018V596H1020V598H1026V592H1028V596H1030V598H1036V596H1032V594H1030V590H1024V596H1022V594H1016Z" fill="white"/>
<path d="M796 644V640H700V642H794V644H796ZM794 634V636H700V638H796V634H794Z" fill="white"/>
<path d="M916 650V640H820V642H914V650H916ZM914 628V636H820V638H916V628H914Z" fill="white"/>
<path d="M1036 650V644H1026V640H940V642H1024V646H1034V648H1020V650H1036ZM1024 632V636H940V638H1026V634H1036V628H1020V630H1034V632H1024Z" fill="white"/>
<path d="M748 682V680H700V682H748Z" fill="url(#paint0_linear_14_222)"/>
<path d="M790 680V686H788V682H784V680H776V682H774V680H748V682H772V684H778V682H782V684H786V688H792V682H796V680H790ZM748 676V678H774V676H776V678H784V676H788V672H790V678H796V676H792V670H786V674H782V676H778V674H772V676H748Z" fill="white"/>
<path d="M748 678V676H700V678H748Z" fill="url(#paint1_linear_14_222)"/>
<path d="M868 682V680H820V682H868Z" fill="url(#paint2_linear_14_222)"/>
<path d="M910 680V684H904V680H898V682H894V680H868V682H892V684H900V682H902V686H912V682H916V680H910ZM868 676V678H894V676H898V678H904V674H910V678H916V676H912V672H902V676H900V674H892V676H868Z" fill="white"/>
<path d="M868 678V676H820V678H868Z" fill="url(#paint3_linear_14_222)"/>
<path d="M988 682V680H940V682H988Z" fill="url(#paint4_linear_14_222)"/>
<path d="M1030 680V682H1028V686H1026V680H1020V682H1018V680H988V682H1016V684H1022V682H1024V688H1030V684H1032V682H1036V680H1030ZM988 676V678H1018V676H1020V678H1026V672H1028V676H1030V678H1036V676H1032V674H1030V670H1024V676H1022V674H1016V676H988Z" fill="white"/>
<path d="M988 678V676H940V678H988Z" fill="url(#paint5_linear_14_222)"/>
<path d="M748 722V720H700V722H748Z" fill="url(#paint6_linear_14_222)"/>
<path d="M796 724V720H748V722H794V724H796ZM748 716V718H796V714H794V716H748Z" fill="white"/>
<path d="M748 718V716H700V718H748Z" fill="url(#paint7_linear_14_222)"/>
<path d="M868 722V720H820V722H868Z" fill="url(#paint8_linear_14_222)"/>
<path d="M914 722H916V720H868V722H914ZM868 716V718H916V716H914H868Z" fill="white"/>
<path d="M914 722V730H916V722H914Z" fill="url(#paint9_linear_14_222)"/>
<path d="M914 708V716H916V708H914Z" fill="url(#paint10_linear_14_222)"/>
<path d="M868 718V716H820V718H868Z" fill="url(#paint11_linear_14_222)"/>
<path d="M988 722V720H940V722H988Z" fill="url(#paint12_linear_14_222)"/>
<path d="M1034 730V728H1020V730H1034Z" fill="url(#paint13_linear_14_222)"/>
<path d="M1034 726V728V730H1036V724H1026V720H988V722H1024V726H1034ZM988 718H1026V714H1036V708H1034V710V712H1024V716H988V718Z" fill="white"/>
<path d="M1020 708V710H1034V708H1020Z" fill="url(#paint14_linear_14_222)"/>
<path d="M988 718V716H940V718H988Z" fill="url(#paint15_linear_14_222)"/>
<path d="M80 306H78V300H50V306H48V300H40V308H46V310H40V338H46V340H40V348H48V342H50V348H78V342H80V348H88V340H82V338H88V310H82V308H88V300H80V306ZM76 302V308H80V312H86V336H80V340H76V346H52V340H48V336H42V312H48V308H52V302H76ZM82 306V302H86V306H82ZM86 342V346H82V342H86ZM42 306V302H46V306H42ZM46 342V346H42V342H46ZM52 336H50V338H52V336ZM52 310H50V312H52V310ZM78 336H76V338H78V336ZM78 310H76V312H78V310Z" fill="white"/>
<path d="M74 314V304H54V314H44V334H54V344H74V334H84V314H74Z" fill="white" fill-opacity="0.498039"/>
<path d="M142 304V300H110V304H108V300H102V306H106V308H102V340H106V342H102V348H108V344H110V348H142V344H144V348H150V342H146V340H150V308H146V306H150V300H144V304H142ZM146 304V302H148V304H146ZM144 306V310H148V338H144V342H140V346H112V342H108V338H104V310H108V306H112V302H140V306H144ZM148 344V346H146V344H148ZM104 304V302H106V304H104ZM106 344V346H104V344H106Z" fill="white"/>
<path d="M142 308H138V304H114V308H110V312H106V336H110V340H114V344H138V340H142V336H146V312H142V308Z" fill="white" fill-opacity="0.498039"/>
<path d="M202 300V304H200V300H176V304H174V300H164V310H168V312H164V336H168V338H164V348H174V344H176V348H200V344H202V348H212V338H208V336H212V312H208V310H212V300H202ZM204 308V302H210V308H204ZM202 306V310H206V314H210V334H206V338H202V342H198V346H178V342H174V338H170V334H166V314H170V310H174V306H178V302H198V306H202ZM210 340V346H204V340H210ZM166 308V302H172V308H166ZM172 340V346H166V340H172Z" fill="white"/>
<path d="M196 308V304H180V308H176V312H172V316H168V332H172V336H176V340H180V344H196V340H200V336H204V332H208V316H204V312H200V308H196Z" fill="white" fill-opacity="0.498039"/>
<path d="M266 304V300H234V304H232V300H226V306H230V308H226V340H230V342H226V348H232V344H234V348H266V344H268V348H274V342H270V340H274V308H270V306H274V300H268V304H266ZM270 304V302H272V304H270ZM266 308V306H268V308H266ZM264 302V310H272V338H264V346H236V338H228V310H236V302H264ZM272 344V346H270V344H272ZM266 342V340H268V342H266ZM228 304V302H230V304H228ZM234 308H232V306H234V308ZM234 340V342H232V340H234ZM230 344V346H228V344H230Z" fill="white"/>
<path d="M270 312H262V304H238V312H230V336H238V344H262V336H270V312Z" fill="white" fill-opacity="0.498039"/>
<path d="M324 304V300H300V304H298V300H288V310H292V312H288V336H292V338H288V348H298V344H300V348H324V344H326V348H336V338H332V336H336V312H332V310H336V300H326V304H324ZM328 304V302H334V308H332V304H328ZM322 302V306H330V314H334V334H330V342H322V346H302V342H294V334H290V314H294V306H302V302H322ZM334 340V346H328V344H332V340H334ZM290 308V302H296V304H292V308H290ZM292 340V344H296V346H290V340H292Z" fill="white"/>
<path d="M320 308V304H304V308H296V316H292V332H296V340H304V344H320V340H328V332H332V316H328V308H320Z" fill="white" fill-opacity="0.498039"/>
<path d="M386 300V304H384V300H364V304H362V300H350V312H354V314H350V334H354V336H350V348H362V344H364V348H384V344H386V348H398V336H394V334H398V314H394V312H398V300H386ZM388 310V306H392V310H388ZM394 310V304H388V302H396V310H394ZM386 312H392V314H384V306H386V312ZM382 302V316H396V332H382V346H366V332H352V316H366V302H382ZM396 338V346H388V344H394V338H396ZM392 334V336H386V342H384V334H392ZM392 338V342H388V338H392ZM352 310V302H360V304H354V310H352ZM356 306H360V310H356V306ZM356 312H362V306H364V314H356V312ZM362 336H356V334H364V342H362V336ZM354 338V344H360V346H352V338H354ZM356 338H360V342H356V338Z" fill="white"/>
<path d="M380 318V304H368V318H354V330H368V344H380V330H394V318H380Z" fill="white" fill-opacity="0.498039"/>
<path d="M450 300V304H446V310H444V300H432V310H430V304H426V300H414V312H418V316H424V318H414V330H424V332H418V336H414V348H426V344H430V338H432V348H444V338H446V344H450V348H462V336H458V332H452V330H462V318H452V316H458V312H462V300H450ZM452 304V302H460V310H458V304H452ZM450 306V310H448V306H450ZM452 310V306H456V310H452ZM442 312H446V316H450V320H460V328H450V332H446V336H442V346H434V336H430V332H426V328H416V320H426V316H430V312H434V302H442V312ZM448 314V312H450V314H448ZM456 312V314H452V312H456ZM460 338V346H452V344H458V338H460ZM452 336V334H456V336H452ZM450 334V336H448V334H450ZM448 342V338H450V342H448ZM456 338V342H452V338H456ZM416 310V302H424V304H418V310H416ZM428 306V310H426V306H428ZM420 310V306H424V310H420ZM424 312V314H420V312H424ZM426 314V312H428V314H426ZM428 334V336H426V334H428ZM420 336V334H424V336H420ZM426 342V338H428V342H426ZM424 338V342H420V338H424ZM424 344V346H416V338H418V344H424Z" fill="white"/>
<path d="M444 314H440V304H436V314H432V318H428V322H418V326H428V330H432V334H436V344H440V334H444V330H448V326H458V322H448V318H444V314Z" fill="white" fill-opacity="0.498039"/>
<path d="M520 304V300H510V308H490V300H480V304H476V314H484V334H476V344H480V348H490V340H510V348H520V344H524V334H516V314H524V304H520ZM518 302V304H514V308H512V302H518ZM512 310H514V312H512V310ZM516 310H520V306H522V312H516V310ZM516 308V306H518V308H516ZM512 314H514V334H512V314ZM510 310V312H490V310H510ZM522 336V342H520V338H516V336H522ZM512 336H514V338H512V336ZM516 342V340H518V342H516ZM512 340H514V344H518V346H512V340ZM510 336V338H490V336H510ZM510 314V334H490V314H510ZM478 312V306H480V310H484V312H478ZM482 304V302H488V308H486V304H482ZM482 308V306H484V308H482ZM486 310H488V312H486V310ZM486 314H488V334H486V314ZM486 336H488V338H486V336ZM486 340H488V346H482V344H486V340ZM480 338V342H478V336H484V338H480ZM482 342V340H484V342H482Z" fill="white"/>
<path d="M508 332V316H492V332H508Z" fill="white" fill-opacity="0.498039"/>
<path d="M84 364V362H44V364H50V366H44V372H42V366H40V406H42V400H44V406H50V408H44V410H84V408H78V406H84V400H86V406H88V366H86V372H84V366H78V364H84ZM78 372V368H82V372H78ZM76 364V374H86V398H76V408H52V398H42V374H52V364H76ZM82 400V404H78V400H82ZM46 372V368H50V372H46ZM50 400V404H46V400H50Z" fill="white"/>
<path d="M74 376V366H54V376H44V396H54V406H74V396H84V376H74Z" fill="white" fill-opacity="0.498039"/>
<path d="M142 364V362H110V364H112V366H106V372H104V370H102V402H104V400H106V406H112V408H110V410H142V408H140V406H146V400H148V402H150V370H148V372H146V366H140V364H142ZM138 368H144V374H148V398H144V404H138V408H114V404H108V398H104V374H108V368H114V364H138V368Z" fill="white"/>
<path d="M136 370V366H116V370H110V376H106V396H110V402H116V406H136V402H142V396H146V376H142V370H136Z" fill="white" fill-opacity="0.498039"/>
<path d="M200 366V362H176V366H168V374H164V398H168V406H176V410H200V406H208V398H212V374H208V366H200ZM200 368H206V374H204V370H200V368ZM200 372H202V374H200V372ZM198 364V376H210V396H198V408H178V396H166V376H178V364H198ZM204 398H206V404H200V402H204V398ZM200 398H202V400H200V398ZM174 372H176V374H174V372ZM170 368H176V370H172V374H170V368ZM170 398H172V402H176V404H170V398ZM174 398H176V400H174V398Z" fill="white"/>
<path d="M196 378V366H180V378H168V394H180V406H196V394H208V378H196Z" fill="white" fill-opacity="0.498039"/>
<path d="M264 362V366H256V362H244V366H236V362H226V372H230V380H226V392H230V400H226V410H236V406H244V410H256V406H264V410H274V400H270V392H274V380H270V372H274V362H264ZM266 366V364H272V370H270V366H266ZM254 364V368H268V382H272V390H268V404H254V408H246V404H232V390H228V382H232V368H246V364H254ZM272 402V408H266V406H270V402H272ZM228 370V364H234V366H230V370H228ZM230 402V406H234V408H228V402H230Z" fill="white"/>
<path d="M252 370V366H248V370H234V384H230V388H234V402H248V406H252V402H266V388H270V384H266V370H252Z" fill="white" fill-opacity="0.498039"/>
<path d="M330 364V362H294V364H296V366H292V370H290V368H288V404H290V402H292V406H296V408H294V410H330V408H328V406H332V402H334V404H336V368H334V370H332V366H328V364H330ZM326 366H324V374H332V372H334V400H332V398H324V406H326V408H298V406H300V398H292V400H290V372H292V374H300V366H298V364H326V366ZM326 372V368H330V372H326ZM330 400V404H326V400H330ZM294 372V368H298V372H294ZM298 400V404H294V400H298Z" fill="white"/>
<path d="M322 376V366H302V376H292V396H302V406H322V396H332V376H322Z" fill="white" fill-opacity="0.498039"/>
<path d="M392 364V362H356V364H358V366H354V370H352V368H350V404H352V402H354V406H358V408H356V410H392V408H390V406H394V402H396V404H398V368H396V370H394V366H390V364H392ZM386 368H392V374H386V368ZM388 364V366H384V376H394V372H396V400H394V396H384V406H388V408H360V406H364V396H354V400H352V372H354V376H364V366H360V364H388ZM386 398H392V404H386V398ZM356 368H362V374H356V368ZM356 398H362V404H356V398Z" fill="white"/>
<path d="M382 378V366H366V378H354V394H366V406H382V394H394V378H382Z" fill="white" fill-opacity="0.498039"/>
<path d="M452 362V366H448V362H428V366H424V362H414V372H418V376H414V396H418V400H414V410H424V406H428V410H448V406H452V410H462V400H458V396H462V376H458V372H462V362H452ZM454 368V364H460V370H456V378H460V394H456V402H460V408H454V404H446V408H430V404H422V408H416V402H420V394H416V378H420V370H416V364H422V368H430V364H446V368H454Z" fill="white"/>
<path d="M444 370V366H432V370H422V380H418V392H422V402H432V406H444V402H454V392H458V380H454V370H444Z" fill="white" fill-opacity="0.498039"/>
<path d="M516 362V366H510V362H490V366H484V362H476V370H480V376H476V396H480V402H476V410H484V406H490V410H510V406H516V410H524V402H520V396H524V376H520V370H524V362H516ZM518 368V364H522V368H518V378H522V394H518V404H522V408H518V404H508V408H492V404H482V408H478V404H482V394H478V378H482V368H478V364H482V368H492V364H508V368H518Z" fill="white"/>
<path d="M506 370V366H494V370H484V380H480V392H484V402H494V406H506V402H516V392H520V380H516V370H506Z" fill="white" fill-opacity="0.498039"/>
<path d="M88 424H40V472H88V424ZM42 426H86V470H42V426Z" fill="white"/>
<path d="M84 428H44V468H84V428Z" fill="white" fill-opacity="0.498039"/>
<path d="M146 428V424H106V428H102V468H106V472H146V468H150V428H146ZM144 426V430H148V466H144V470H108V466H104V430H108V426H144ZM146 432H142V428H110V432H106V464H110V468H142V464H146V432ZM140 430V434H144V462H140V466H112V462H108V434H112V430H140Z" fill="white"/>
<path d="M138 436V432H114V436H110V460H114V464H138V460H142V436H138Z" fill="white" fill-opacity="0.498039"/>
<path d="M168 472V468H164V472H168ZM164 424V428H168V424H164ZM212 472V468H208V472H212ZM208 424V428H212V424H208ZM206 430V424H170V430H164V466H170V472H206V466H212V430H206ZM204 426V430H202V434H206V432H210V464H206V462H202V466H204V470H172V466H174V462H170V464H166V432H170V434H174V430H172V426H204Z" fill="white"/>
<path d="M208 436H200V428H176V436H168V460H176V468H200V460H208V436Z" fill="white" fill-opacity="0.498039"/>
<path d="M232 472V466H226V472H232ZM230 468V470H228V468H230ZM226 424V430H232V424H226ZM228 428V426H230V428H228ZM274 472V466H268V472H274ZM272 468V470H270V468H272ZM268 424V430H274V424H268ZM270 428V426H272V428H270ZM266 432V424H234V432H226V464H234V472H266V464H274V432H266ZM264 426V434H272V462H264V470H236V462H228V434H236V426H264Z" fill="white"/>
<path d="M262 436V428H238V436H230V460H238V468H262V460H270V436H262Z" fill="white" fill-opacity="0.498039"/>
<path d="M328 426V424H296V426H294V424H288V430H290V432H288V464H290V466H288V472H294V470H296V472H328V470H330V472H336V466H334V464H336V432H334V430H336V424H330V426H328ZM332 428V426H334V428H332ZM328 428H330V430H332V432H328V428ZM326 426V434H334V462H326V470H298V462H290V434H298V426H326ZM334 468V470H332V468H334ZM332 464V466H330V468H328V464H332ZM290 428V426H292V428H290ZM294 428H296V432H292V430H294V428ZM292 466V464H296V468H294V466H292ZM292 468V470H290V468H292Z" fill="white"/>
<path d="M332 436H324V428H300V436H292V460H300V468H324V460H332V436Z" fill="white" fill-opacity="0.498039"/>
<path d="M390 428V424H358V428H356V424H350V430H354V432H350V464H354V466H350V472H356V468H358V472H390V468H392V472H398V466H394V464H398V432H394V430H398V424H392V428H390ZM394 428V426H396V428H394ZM390 432V430H392V432H390ZM388 426V434H396V462H388V470H360V462H352V434H360V426H388ZM396 468V470H394V468H396ZM390 466V464H392V466H390ZM352 428V426H354V428H352ZM358 432H356V430H358V432ZM358 464V466H356V464H358ZM354 468V470H352V468H354Z" fill="white"/>
<path d="M394 436H386V428H362V436H354V460H362V468H386V460H394V436Z" fill="white" fill-opacity="0.498039"/>
<path d="M454 424V426H422V424H414V432H416V464H414V472H422V470H454V472H462V464H460V432H462V424H454ZM454 432H458V464H454V468H422V464H418V432H422V428H454V432ZM456 430V426H460V430H456ZM460 466V470H456V466H460ZM416 430V426H420V430H416ZM420 466V470H416V466H420Z" fill="white"/>
<path d="M452 434V430H424V434H420V462H424V466H452V462H456V434H452Z" fill="white" fill-opacity="0.498039"/>
<path d="M516 424V426H484V424H476V432H478V464H476V472H484V470H516V472H524V464H522V432H524V424H516ZM518 430V426H522V430H518ZM516 428V432H520V464H516V468H484V464H480V432H484V428H516ZM522 466V470H518V466H522ZM478 430V426H482V430H478ZM482 466V470H478V466H482Z" fill="white"/>
<path d="M512 432H514V430H510V432H508V430H492V432H490V430H486V432H488V436H484V434H482V438H484V440H482V456H484V458H482V462H484V460H488V464H486V466H490V464H492V466H508V464H510V466H514V464H512V460H516V462H518V458H516V456H518V440H516V438H518V434H516V436H512V432Z" fill="white" fill-opacity="0.498039"/>
<path d="M88 534V486H40V534H88ZM80 488V490H78V488H80ZM80 494H82V498H86V522H82V526H80V528H76V532H52V528H48V526H46V522H42V498H46V494H48V492H52V488H76V492H80V494ZM84 496V494H86V496H84ZM82 492V488H86V492H82ZM86 528V532H82V528H86ZM86 524V526H84V524H86ZM78 532V530H80V532H78ZM42 492V488H46V492H42ZM42 496V494H44V496H42ZM50 488V490H48V488H50ZM44 524V526H42V524H44ZM48 532V530H50V532H48ZM46 528V532H42V528H46Z" fill="white"/>
<path d="M78 496V494H74V490H54V494H50V496H48V500H44V520H48V524H50V526H54V530H74V526H78V524H80V520H84V500H80V496H78Z" fill="white" fill-opacity="0.498039"/>
<path d="M146 490V486H106V490H102V530H106V534H146V530H150V490H146ZM144 496V492H140V488H144V492H148V496H144ZM138 488V494H142V498H148V522H142V526H138V532H114V526H110V522H104V498H110V494H114V488H138ZM148 524V528H144V532H140V528H144V524H148ZM104 496V492H108V488H112V492H108V496H104ZM108 524V528H112V532H108V528H104V524H108Z" fill="white"/>
<path d="M136 496V490H116V496H112V500H106V520H112V524H116V530H136V524H140V520H146V500H140V496H136Z" fill="white" fill-opacity="0.498039"/>
<path d="M212 534V486H164V534H212ZM208 496V490H202V488H210V496H208ZM200 488V492H206V498H210V522H206V528H200V532H176V528H170V522H166V498H170V492H176V488H200ZM210 524V532H202V530H208V524H210ZM166 496V488H174V490H168V496H166ZM168 530H174V532H166V524H168V530Z" fill="white"/>
<path d="M198 494V490H178V494H172V500H168V520H172V526H178V530H198V526H204V520H208V500H204V494H198Z" fill="white" fill-opacity="0.498039"/>
<path d="M232 534V528H226V534H232ZM230 530V532H228V530H230ZM232 494H230V526H232V494ZM228 494H226V526H228V494ZM226 486V492H232V486H226ZM228 490V488H230V490H228ZM266 530V528H234V530H266ZM266 534V532H234V534H266ZM274 534V528H268V534H274ZM272 530V532H270V530H272ZM274 494H272V526H274V494ZM270 494H268V526H270V494ZM266 492V490H234V492H266ZM268 486V492H274V486H268ZM270 490V488H272V490H270ZM266 488V486H234V488H266Z" fill="white"/>
<path d="M266 526V494H234V526H266Z" fill="white" fill-opacity="0.498039"/>
<path d="M326 486V490H298V486H288V496H292V524H288V534H298V530H326V534H336V524H332V496H336V486H326ZM332 490H328V488H334V494H332V490ZM326 492V494H298V492H326ZM328 496H330V524H328V496ZM328 494V492H330V494H328ZM334 526V532H328V530H332V526H334ZM328 528V526H330V528H328ZM326 526V528H298V526H326ZM326 496V524H298V496H326ZM290 494V488H296V490H292V494H290ZM294 492H296V494H294V492ZM294 496H296V524H294V496ZM294 528V526H296V528H294ZM296 530V532H290V526H292V530H296Z" fill="white"/>
<path d="M324 522V498H300V522H324Z" fill="white" fill-opacity="0.498039"/>
<path d="M392 488V486H356V488H352V492H350V528H352V532H356V534H392V532H396V528H398V492H396V488H392ZM392 490H394V492H392V490ZM390 488V490H386V498H394V494H396V526H394V522H386V530H390V532H358V530H362V522H354V526H352V494H354V498H362V490H358V488H390ZM388 496V492H390V494H392V496H388ZM392 528H394V530H392V528ZM392 524V526H390V528H388V524H392ZM354 490H356V492H354V490ZM356 496V494H358V492H360V496H356ZM360 524V528H358V526H356V524H360ZM354 528H356V530H354V528Z" fill="white"/>
<path d="M384 500V490H364V500H354V520H364V530H384V520H394V500H384Z" fill="white" fill-opacity="0.498039"/>
<path d="M462 534V486H414V534H462ZM456 488H460V492H456V488ZM454 488V494H460V526H454V532H422V526H416V494H422V488H454ZM456 528H460V532H456V528ZM416 488H420V492H416V488ZM416 528H420V532H416V528Z" fill="white"/>
<path d="M452 496V490H424V496H418V524H424V530H452V524H458V496H452Z" fill="white" fill-opacity="0.498039"/>
<path d="M480 534H482V528H476V530H480V534ZM476 490V492H482V486H480V490H476ZM524 530V528H518V534H520V530H524ZM514 488V490H486V488H484V494H478V496H480V524H478V526H484V532H486V530H514V532H516V526H522V524H520V496H522V494H516V488H514ZM514 496H518V524H514V528H486V524H482V496H486V492H514V496ZM518 486V492H524V490H520V486H518Z" fill="white"/>
<path d="M516 498H512V494H488V498H484V522H488V526H512V522H516V498Z" fill="white" fill-opacity="0.498039"/>
<path d="M106 596H108V590H102V592H106V596ZM102 552V554H108V548H106V552H102ZM150 592V590H144V596H146V592H150ZM140 550V552H112V550H110V556H104V558H106V586H104V588H110V594H112V592H140V594H142V588H148V586H146V558H148V556H142V550H140ZM140 558H144V586H140V590H112V586H108V558H112V554H140V558ZM144 548V554H150V552H146V548H144Z" fill="white"/>
<path d="M588 306V300H560V306H558V300H550V308H556V310H550V338H556V340H550V348H558V342H560V348H588V342H590V348H598V340H592V338H598V310H592V308H598V300H590V306H588ZM586 302V308H590V312H596V336H590V340H586V346H562V340H558V336H552V312H558V308H562V302H586ZM592 306V302H596V306H592ZM596 342V346H592V342H596ZM552 306V302H556V306H552ZM556 342V346H552V342H556ZM562 336H560V338H562V336ZM562 310H560V312H562V310ZM588 336H586V338H588V336ZM588 310H586V312H588V310Z" fill="white" fill-opacity="0.498039"/>
<path d="M584 314V304H564V314H554V334H564V344H584V334H594V314H584Z" fill="white"/>
<path d="M652 304V300H620V304H618V300H612V306H616V308H612V340H616V342H612V348H618V344H620V348H652V344H654V348H660V342H656V340H660V308H656V306H660V300H654V304H652ZM656 304V302H658V304H656ZM654 306V310H658V338H654V342H650V346H622V342H618V338H614V310H618V306H622V302H650V306H654ZM658 344V346H656V344H658ZM614 304V302H616V304H614ZM616 344V346H614V344H616Z" fill="white" fill-opacity="0.498039"/>
<path d="M652 308H648V304H624V308H620V312H616V336H620V340H624V344H648V340H652V336H656V312H652V308Z" fill="white"/>
<path d="M712 300V304H710V300H686V304H684V300H674V310H678V312H674V336H678V338H674V348H684V344H686V348H710V344H712V348H722V338H718V336H722V312H718V310H722V300H712ZM714 308V302H720V308H714ZM712 306V310H716V314H720V334H716V338H712V342H708V346H688V342H684V338H680V334H676V314H680V310H684V306H688V302H708V306H712ZM720 340V346H714V340H720ZM676 308V302H682V308H676ZM682 340V346H676V340H682Z" fill="white" fill-opacity="0.498039"/>
<path d="M706 308V304H690V308H686V312H682V316H678V332H682V336H686V340H690V344H706V340H710V336H714V332H718V316H714V312H710V308H706Z" fill="white"/>
<path d="M776 304V300H744V304H742V300H736V306H740V308H736V340H740V342H736V348H742V344H744V348H776V344H778V348H784V342H780V340H784V308H780V306H784V300H778V304H776ZM780 304V302H782V304H780ZM776 308V306H778V308H776ZM774 302V310H782V338H774V346H746V338H738V310H746V302H774ZM782 344V346H780V344H782ZM776 342V340H778V342H776ZM738 304V302H740V304H738ZM744 308H742V306H744V308ZM744 340V342H742V340H744ZM740 344V346H738V344H740Z" fill="white" fill-opacity="0.498039"/>
<path d="M780 312H772V304H748V312H740V336H748V344H772V336H780V312Z" fill="white"/>
<path d="M834 304V300H810V304H808V300H798V310H802V312H798V336H802V338H798V348H808V344H810V348H834V344H836V348H846V338H842V336H846V312H842V310H846V300H836V304H834ZM842 308V304H838V302H844V308H842ZM832 302V306H840V314H844V334H840V342H832V346H812V342H804V334H800V314H804V306H812V302H832ZM844 340V346H838V344H842V340H844ZM800 308V302H806V304H802V308H800ZM802 340V344H806V346H800V340H802Z" fill="white" fill-opacity="0.498039"/>
<path d="M830 308V304H814V308H806V316H802V332H806V340H814V344H830V340H838V332H842V316H838V308H830Z" fill="white"/>
<path d="M896 300V304H894V300H874V304H872V300H860V312H864V314H860V334H864V336H860V348H872V344H874V348H894V344H896V348H908V336H904V334H908V314H904V312H908V300H896ZM898 304V302H906V310H904V304H898ZM898 306H902V310H898V306ZM896 312H902V314H894V306H896V312ZM892 302V316H906V332H892V346H876V332H862V316H876V302H892ZM906 338V346H898V344H904V338H906ZM902 334V336H896V342H894V334H902ZM902 338V342H898V338H902ZM862 310V302H870V304H864V310H862ZM866 306H870V310H866V306ZM866 312H872V306H874V314H866V312ZM872 336H866V334H874V342H872V336ZM864 338V344H870V346H862V338H864ZM866 338H870V342H866V338Z" fill="white" fill-opacity="0.498039"/>
<path d="M890 318V304H878V318H864V330H878V344H890V330H904V318H890Z" fill="white"/>
<path d="M960 300V304H956V310H954V300H942V310H940V304H936V300H924V312H928V316H934V318H924V330H934V332H928V336H924V348H936V344H940V338H942V348H954V338H956V344H960V348H972V336H968V332H962V330H972V318H962V316H968V312H972V300H960ZM962 304V302H970V310H968V304H962ZM962 310V306H966V310H962ZM960 306V310H958V306H960ZM958 314V312H960V314H958ZM952 312H956V316H960V320H970V328H960V332H956V336H952V346H944V336H940V332H936V328H926V320H936V316H940V312H944V302H952V312ZM966 312V314H962V312H966ZM970 338V346H962V344H968V338H970ZM962 336V334H966V336H962ZM960 334V336H958V334H960ZM958 342V338H960V342H958ZM966 338V342H962V338H966ZM926 310V302H934V304H928V310H926ZM938 306V310H936V306H938ZM930 310V306H934V310H930ZM934 312V314H930V312H934ZM936 314V312H938V314H936ZM938 334V336H936V334H938ZM930 336V334H934V336H930ZM936 342V338H938V342H936ZM934 338V342H930V338H934ZM934 344V346H926V338H928V344H934Z" fill="white" fill-opacity="0.498039"/>
<path d="M954 314H950V304H946V314H942V318H938V322H928V326H938V330H942V334H946V344H950V334H954V330H958V326H968V322H958V318H954V314Z" fill="white"/>
<path d="M1030 304V300H1020V308H1000V300H990V304H986V314H994V334H986V344H990V348H1000V340H1020V348H1030V344H1034V334H1026V314H1034V304H1030ZM1028 302V304H1024V308H1022V302H1028ZM1022 310H1024V312H1022V310ZM1026 306H1028V308H1026V306ZM1030 310V306H1032V312H1026V310H1030ZM1022 314H1024V334H1022V314ZM1020 310V312H1000V310H1020ZM1032 336V342H1030V338H1026V336H1032ZM1022 336H1024V338H1022V336ZM1026 342V340H1028V342H1026ZM1022 340H1024V344H1028V346H1022V340ZM1020 336V338H1000V336H1020ZM1020 314V334H1000V314H1020ZM988 312V306H990V310H994V312H988ZM992 304V302H998V308H996V304H992ZM992 308V306H994V308H992ZM996 310H998V312H996V310ZM996 314H998V334H996V314ZM996 336H998V338H996V336ZM996 340H998V346H992V344H996V340ZM990 338V342H988V336H994V338H990ZM992 342V340H994V342H992Z" fill="white" fill-opacity="0.498039"/>
<path d="M1018 332V316H1002V332H1018Z" fill="white"/>
<path d="M594 364V362H554V364H560V366H554V372H552V366H550V406H552V400H554V406H560V408H554V410H594V408H588V406H594V400H596V406H598V366H596V372H594V366H588V364H594ZM588 372V368H592V372H588ZM586 364V374H596V398H586V408H562V398H552V374H562V364H586ZM592 400V404H588V400H592ZM556 372V368H560V372H556ZM560 400V404H556V400H560Z" fill="white" fill-opacity="0.498039"/>
<path d="M584 376V366H564V376H554V396H564V406H584V396H594V376H584Z" fill="white"/>
<path d="M652 364V362H620V364H622V366H616V372H614V370H612V402H614V400H616V406H622V408H620V410H652V408H650V406H656V400H658V402H660V370H658V372H656V366H650V364H652ZM648 368H654V374H658V398H654V404H648V408H624V404H618V398H614V374H618V368H624V364H648V368Z" fill="white" fill-opacity="0.498039"/>
<path d="M646 370V366H626V370H620V376H616V396H620V402H626V406H646V402H652V396H656V376H652V370H646Z" fill="white"/>
<path d="M710 366V362H686V366H678V374H674V398H678V406H686V410H710V406H718V398H722V374H718V366H710ZM710 368H716V374H714V370H710V368ZM710 372H712V374H710V372ZM708 364V376H720V396H708V408H688V396H676V376H688V364H708ZM714 398H716V404H710V402H714V398ZM710 398H712V400H710V398ZM686 370H682V374H680V368H686V370ZM684 372H686V374H684V372ZM684 398H686V400H684V398ZM680 398H682V402H686V404H680V398Z" fill="white" fill-opacity="0.498039"/>
<path d="M706 378V366H690V378H678V394H690V406H706V394H718V378H706Z" fill="white"/>
<path d="M774 362V366H766V362H754V366H746V362H736V372H740V380H736V392H740V400H736V410H746V406H754V410H766V406H774V410H784V400H780V392H784V380H780V372H784V362H774ZM780 370V366H776V364H782V370H780ZM764 364V368H778V382H782V390H778V404H764V408H756V404H742V390H738V382H742V368H756V364H764ZM782 402V408H776V406H780V402H782ZM738 370V364H744V366H740V370H738ZM740 402V406H744V408H738V402H740Z" fill="white" fill-opacity="0.498039"/>
<path d="M762 370V366H758V370H744V384H740V388H744V402H758V406H762V402H776V388H780V384H776V370H762Z" fill="white"/>
<path d="M840 364V362H804V364H806V366H802V370H800V368H798V404H800V402H802V406H806V408H804V410H840V408H838V406H842V402H844V404H846V368H844V370H842V366H838V364H840ZM836 366H834V374H842V372H844V400H842V398H834V406H836V408H808V406H810V398H802V400H800V372H802V374H810V366H808V364H836V366ZM836 372V368H840V372H836ZM840 400V404H836V400H840ZM804 372V368H808V372H804ZM808 400V404H804V400H808Z" fill="white" fill-opacity="0.498039"/>
<path d="M832 376V366H812V376H802V396H812V406H832V396H842V376H832Z" fill="white"/>
<path d="M902 364V362H866V364H868V366H864V370H862V368H860V404H862V402H864V406H868V408H866V410H902V408H900V406H904V402H906V404H908V368H906V370H904V366H900V364H902ZM896 368H902V374H896V368ZM898 364V366H894V376H904V372H906V400H904V396H894V406H898V408H870V406H874V396H864V400H862V372H864V376H874V366H870V364H898ZM896 398H902V404H896V398ZM866 368H872V374H866V368ZM866 398H872V404H866V398Z" fill="white" fill-opacity="0.498039"/>
<path d="M892 378V366H876V378H864V394H876V406H892V394H904V378H892Z" fill="white"/>
<path d="M962 362V366H958V362H938V366H934V362H924V372H928V376H924V396H928V400H924V410H934V406H938V410H958V406H962V410H972V400H968V396H972V376H968V372H972V362H962ZM964 368V364H970V370H966V378H970V394H966V402H970V408H964V404H956V408H940V404H932V408H926V402H930V394H926V378H930V370H926V364H932V368H940V364H956V368H964Z" fill="white" fill-opacity="0.498039"/>
<path d="M954 370V366H942V370H932V380H928V392H932V402H942V406H954V402H964V392H968V380H964V370H954Z" fill="white"/>
<path d="M1026 362V366H1020V362H1000V366H994V362H986V370H990V376H986V396H990V402H986V410H994V406H1000V410H1020V406H1026V410H1034V402H1030V396H1034V376H1030V370H1034V362H1026ZM1028 368V364H1032V368H1028V378H1032V394H1028V404H1032V408H1028V404H1018V408H1002V404H992V408H988V404H992V394H988V378H992V368H988V364H992V368H1002V364H1018V368H1028Z" fill="white" fill-opacity="0.498039"/>
<path d="M1016 370V366H1004V370H994V380H990V392H994V402H1004V406H1016V402H1026V392H1030V380H1026V370H1016Z" fill="white"/>
<path d="M598 424H550V472H598V424ZM552 426H596V470H552V426Z" fill="white" fill-opacity="0.498039"/>
<path d="M594 428H554V468H594V428Z" fill="white"/>
<path d="M656 428V424H616V428H612V468H616V472H656V468H660V428H656ZM654 426V430H658V466H654V470H618V466H614V430H618V426H654ZM652 432V428H620V432H616V464H620V468H652V464H656V432H652ZM650 434H654V462H650V466H622V462H618V434H622V430H650V434Z" fill="white" fill-opacity="0.498039"/>
<path d="M648 436V432H624V436H620V460H624V464H648V460H652V436H648Z" fill="white"/>
<path d="M678 472V468H674V472H678ZM674 424V428H678V424H674ZM722 472V468H718V472H722ZM718 424V428H722V424H718ZM716 430V424H680V430H674V466H680V472H716V466H722V430H716ZM714 426V430H712V434H716V432H720V464H716V462H712V466H714V470H682V466H684V462H680V464H676V432H680V434H684V430H682V426H714Z" fill="white" fill-opacity="0.498039"/>
<path d="M718 436H710V428H686V436H678V460H686V468H710V460H718V436Z" fill="white"/>
<path d="M742 472V466H736V472H742ZM740 468V470H738V468H740ZM736 424V430H742V424H736ZM738 428V426H740V428H738ZM784 472V466H778V472H784ZM782 468V470H780V468H782ZM778 424V430H784V424H778ZM780 428V426H782V428H780ZM776 432V424H744V432H736V464H744V472H776V464H784V432H776ZM774 426V434H782V462H774V470H746V462H738V434H746V426H774Z" fill="white" fill-opacity="0.498039"/>
<path d="M780 436H772V428H748V436H740V460H748V468H772V460H780V436Z" fill="white"/>
<path d="M840 424V426H838V424H806V426H804V424H798V430H800V432H798V464H800V466H798V472H804V470H806V472H838V470H840V472H846V466H844V464H846V432H844V430H846V424H840ZM842 428V426H844V428H842ZM838 428H840V430H842V432H838V428ZM836 426V434H844V462H836V470H808V462H800V434H808V426H836ZM844 468V470H842V468H844ZM842 464V466H840V468H838V464H842ZM800 428V426H802V428H800ZM804 428H806V432H802V430H804V428ZM802 466V464H806V468H804V466H802ZM802 468V470H800V468H802Z" fill="white" fill-opacity="0.498039"/>
<path d="M842 436H834V428H810V436H802V460H810V468H834V460H842V436Z" fill="white"/>
<path d="M900 428V424H868V428H866V424H860V430H864V432H860V464H864V466H860V472H866V468H868V472H900V468H902V472H908V466H904V464H908V432H904V430H908V424H902V428H900ZM904 428V426H906V428H904ZM900 432V430H902V432H900ZM898 426V434H906V462H898V470H870V462H862V434H870V426H898ZM906 468V470H904V468H906ZM900 466V464H902V466H900ZM862 428V426H864V428H862ZM868 432H866V430H868V432ZM868 464V466H866V464H868ZM864 468V470H862V468H864Z" fill="white" fill-opacity="0.498039"/>
<path d="M904 436H896V428H872V436H864V460H872V468H896V460H904V436Z" fill="white"/>
<path d="M964 424V426H932V424H924V432H926V464H924V472H932V470H964V472H972V464H970V432H972V424H964ZM966 430V426H970V430H966ZM964 428V432H968V464H964V468H932V464H928V432H932V428H964ZM970 466V470H966V466H970ZM926 430V426H930V430H926ZM930 466V470H926V466H930Z" fill="white" fill-opacity="0.498039"/>
<path d="M966 434H962V430H934V434H930V462H934V466H962V462H966V434Z" fill="white"/>
<path d="M1026 424V426H994V424H986V432H988V464H986V472H994V470H1026V472H1034V464H1032V432H1034V424H1026ZM1028 430V426H1032V430H1028ZM1026 428V432H1030V464H1026V468H994V464H990V432H994V428H1026ZM1032 466V470H1028V466H1032ZM988 430V426H992V430H988ZM992 466V470H988V466H992Z" fill="white" fill-opacity="0.498039"/>
<path d="M1024 432V430H1020V432H1018V430H1002V432H1000V430H996V432H998V436H994V434H992V438H994V440H992V456H994V458H992V462H994V460H998V464H996V466H1000V464H1002V466H1018V464H1020V466H1024V464H1022V460H1026V462H1028V458H1026V456H1028V440H1026V438H1028V434H1026V436H1022V432H1024Z" fill="white"/>
<path d="M598 534V486H550V534H598ZM590 488V490H588V488H590ZM594 496V494H596V496H594ZM590 494H592V498H596V522H592V526H590V528H586V532H562V528H558V526H556V522H552V498H556V494H558V492H562V488H586V492H590V494ZM592 492V488H596V492H592ZM596 528V532H592V528H596ZM596 524V526H594V524H596ZM588 532V530H590V532H588ZM552 492V488H556V492H552ZM552 496V494H554V496H552ZM560 488V490H558V488H560ZM554 524V526H552V524H554ZM558 532V530H560V532H558ZM556 528V532H552V528H556Z" fill="white" fill-opacity="0.498039"/>
<path d="M588 496V494H584V490H564V494H560V496H558V500H554V520H558V524H560V526H564V530H584V526H588V524H590V520H594V500H590V496H588Z" fill="white"/>
<path d="M656 490V486H616V490H612V530H616V534H656V530H660V490H656ZM654 496V492H650V488H654V492H658V496H654ZM648 488V494H652V498H658V522H652V526H648V532H624V526H620V522H614V498H620V494H624V488H648ZM658 524V528H654V532H650V528H654V524H658ZM614 496V492H618V488H622V492H618V496H614ZM618 528H622V532H618V528H614V524H618V528Z" fill="white" fill-opacity="0.498039"/>
<path d="M646 496V490H626V496H622V500H616V520H622V524H626V530H646V524H650V520H656V500H650V496H646Z" fill="white"/>
<path d="M722 534V486H674V534H722ZM718 496V490H712V488H720V496H718ZM710 488V492H716V498H720V522H716V528H710V532H686V528H680V522H676V498H680V492H686V488H710ZM720 524V532H712V530H718V524H720ZM676 496V488H684V490H678V496H676ZM678 530H684V532H676V524H678V530Z" fill="white" fill-opacity="0.498039"/>
<path d="M708 494V490H688V494H682V500H678V520H682V526H688V530H708V526H714V520H718V500H714V494H708Z" fill="white"/>
<path d="M742 534V528H736V534H742ZM740 530V532H738V530H740ZM742 494H740V526H742V494ZM738 494H736V526H738V494ZM736 486V492H742V486H736ZM738 490V488H740V490H738ZM776 530V528H744V530H776ZM776 534V532H744V534H776ZM784 534V528H778V534H784ZM782 530V532H780V530H782ZM784 494H782V526H784V494ZM780 494H778V526H780V494ZM776 492V490H744V492H776ZM778 486V492H784V486H778ZM780 490V488H782V490H780ZM776 488V486H744V488H776Z" fill="white" fill-opacity="0.498039"/>
<path d="M776 526V494H744V526H776Z" fill="white"/>
<path d="M836 486V490H808V486H798V496H802V524H798V534H808V530H836V534H846V524H842V496H846V486H836ZM842 490H838V488H844V494H842V490ZM836 492V494H808V492H836ZM838 494V492H840V494H838ZM838 496H840V524H838V496ZM844 526V532H838V530H842V526H844ZM838 528V526H840V528H838ZM836 526V528H808V526H836ZM836 496V524H808V496H836ZM800 494V488H806V490H802V494H800ZM804 492H806V494H804V492ZM804 496H806V524H804V496ZM804 528V526H806V528H804ZM806 530V532H800V526H802V530H806Z" fill="white" fill-opacity="0.498039"/>
<path d="M834 522V498H810V522H834Z" fill="white"/>
<path d="M902 488V486H866V488H862V492H860V528H862V532H866V534H902V532H906V528H908V492H906V488H902ZM902 490H904V492H902V490ZM900 488V490H896V498H904V494H906V526H904V522H896V530H900V532H868V530H872V522H864V526H862V494H864V498H872V490H868V488H900ZM898 496V492H900V494H902V496H898ZM902 528H904V530H902V528ZM902 524V526H900V528H898V524H902ZM864 490H866V492H864V490ZM866 496V494H868V492H870V496H866ZM870 524V528H868V526H866V524H870ZM864 528H866V530H864V528Z" fill="white" fill-opacity="0.498039"/>
<path d="M894 500V490H874V500H864V520H874V530H894V520H904V500H894Z" fill="white"/>
<path d="M972 534V486H924V534H972ZM964 488V494H970V526H964V532H932V526H926V494H932V488H964ZM966 488H970V492H966V488ZM966 528H970V532H966V528ZM926 488H930V492H926V488ZM926 528H930V532H926V528Z" fill="white" fill-opacity="0.498039"/>
<path d="M962 496V490H934V496H928V524H934V530H962V524H968V496H962Z" fill="white"/>
<path d="M990 534H992V528H986V530H990V534ZM986 490V492H992V486H990V490H986ZM1034 530V528H1028V534H1030V530H1034ZM1024 488V490H996V488H994V494H988V496H990V524H988V526H994V532H996V530H1024V532H1026V526H1032V524H1030V496H1032V494H1026V488H1024ZM1024 496H1028V524H1024V528H996V524H992V496H996V492H1024V496ZM1030 490V486H1028V492H1034V490H1030Z" fill="white" fill-opacity="0.498039"/>
<path d="M1026 498H1022V494H998V498H994V522H998V526H1022V522H1026V498Z" fill="white"/>
<path d="M592 50V48H598V40H590V46H588V40H560V46H558V40H550V48H556V50H550V78H556V80H550V88H558V82H560V88H588V82H590V88H598V80H592V78H598V50H592ZM592 46V42H596V46H592ZM586 42V48H590V52H596V76H590V80H586V86H562V80H558V76H552V52H558V48H562V42H586ZM596 82V86H592V82H596ZM552 46V42H556V46H552ZM556 82V86H552V82H556ZM562 76H560V78H562V76ZM562 50H560V52H562V50ZM588 76H586V78H588V76ZM588 50H586V52H588V50Z" fill="white"/>
<path d="M652 44V40H620V44H618V40H612V46H616V48H612V80H616V82H612V88H618V84H620V88H652V84H654V88H660V82H656V80H660V48H656V46H660V40H654V44H652ZM654 46V50H658V78H654V82H650V86H622V82H618V78H614V50H618V46H622V42H650V46H654ZM656 44V42H658V44H656ZM658 84V86H656V84H658ZM614 44V42H616V44H614ZM616 84V86H614V84H616Z" fill="white"/>
<path d="M710 44V40H686V44H684V40H674V50H678V52H674V76H678V78H674V88H684V84H686V88H710V84H712V88H722V78H718V76H722V52H718V50H722V40H712V44H710ZM712 50H716V54H720V74H716V78H712V82H708V86H688V82H684V78H680V74H676V54H680V50H684V46H688V42H708V46H712V50ZM714 48V42H720V48H714ZM720 80V86H714V80H720ZM676 48V42H682V48H676ZM682 80V86H676V80H682Z" fill="white"/>
<path d="M776 44V40H744V44H742V40H736V46H740V48H736V80H740V82H736V88H742V84H744V88H776V84H778V88H784V82H780V80H784V48H780V46H784V40H778V44H776ZM780 44V42H782V44H780ZM776 48V46H778V48H776ZM774 42V50H782V78H774V86H746V78H738V50H746V42H774ZM782 84V86H780V84H782ZM776 82V80H778V82H776ZM738 44V42H740V44H738ZM742 46H744V48H742V46ZM742 82V80H744V82H742ZM740 84V86H738V84H740Z" fill="white"/>
<path d="M834 44V40H810V44H808V40H798V50H802V52H798V76H802V78H798V88H808V84H810V88H834V84H836V88H846V78H842V76H846V52H842V50H846V40H836V44H834ZM842 48V44H838V42H844V48H842ZM832 42V46H840V54H844V74H840V82H832V86H812V82H804V74H800V54H804V46H812V42H832ZM844 80V86H838V84H842V80H844ZM800 48V42H806V44H802V48H800ZM802 84H806V86H800V80H802V84Z" fill="white"/>
<path d="M896 40V44H894V40H874V44H872V40H860V52H864V54H860V74H864V76H860V88H872V84H874V88H894V84H896V88H908V76H904V74H908V54H904V52H908V40H896ZM898 44V42H906V50H904V44H898ZM898 46H902V50H898V46ZM896 52H902V54H894V46H896V52ZM892 42V56H906V72H892V86H876V72H862V56H876V42H892ZM906 78V86H898V84H904V78H906ZM902 74V76H896V82H894V74H902ZM902 78V82H898V78H902ZM862 50V42H870V44H864V50H862ZM870 46V50H866V46H870ZM866 52H872V46H874V54H866V52ZM872 76H866V74H874V82H872V76ZM864 78V84H870V86H862V78H864ZM866 78H870V82H866V78Z" fill="white"/>
<path d="M960 40V44H956V50H954V40H942V50H940V44H936V40H924V52H928V56H934V58H924V70H934V72H928V76H924V88H936V84H940V78H942V88H954V78H956V84H960V88H972V76H968V72H962V70H972V58H962V56H968V52H972V40H960ZM962 44V42H970V50H968V44H962ZM960 46V50H958V46H960ZM962 50V46H966V50H962ZM952 52H956V56H960V60H970V68H960V72H956V76H952V86H944V76H940V72H936V68H926V60H936V56H940V52H944V42H952V52ZM958 54V52H960V54H958ZM966 52V54H962V52H966ZM970 78V86H962V84H968V78H970ZM960 74V76H958V74H960ZM962 76V74H966V76H962ZM958 82V78H960V82H958ZM966 78V82H962V78H966ZM926 50V42H934V44H928V50H926ZM938 46V50H936V46H938ZM930 50V46H934V50H930ZM936 54V52H938V54H936ZM934 52V54H930V52H934ZM938 74V76H936V74H938ZM930 76V74H934V76H930ZM936 82V78H938V82H936ZM934 78V82H930V78H934ZM934 84V86H926V78H928V84H934Z" fill="white"/>
<path d="M1030 44V40H1020V48H1000V40H990V44H986V54H994V74H986V84H990V88H1000V80H1020V88H1030V84H1034V74H1026V54H1034V44H1030ZM1028 42V44H1024V48H1022V42H1028ZM1022 50H1024V52H1022V50ZM1026 50H1030V46H1032V52H1026V50ZM1026 48V46H1028V48H1026ZM1022 54H1024V74H1022V54ZM1020 50V52H1000V50H1020ZM1032 76V82H1030V78H1026V76H1032ZM1022 76H1024V78H1022V76ZM1026 82V80H1028V82H1026ZM1022 80H1024V84H1028V86H1022V80ZM1020 76V78H1000V76H1020ZM1020 54V74H1000V54H1020ZM988 52V46H990V50H994V52H988ZM992 44V42H998V48H996V44H992ZM992 48V46H994V48H992ZM996 50H998V52H996V50ZM996 54H998V74H996V54ZM996 76H998V78H996V76ZM996 80H998V86H992V84H996V80ZM990 78V82H988V76H994V78H990ZM992 82V80H994V82H992Z" fill="white"/>
<path d="M594 104V102H554V104H560V106H554V112H552V106H550V146H552V140H554V146H560V148H554V150H594V148H588V146H594V140H596V146H598V106H596V112H594V106H588V104H594ZM588 112V108H592V112H588ZM586 104V114H596V138H586V148H562V138H552V114H562V104H586ZM592 140V144H588V140H592ZM556 112V108H560V112H556ZM560 140V144H556V140H560Z" fill="white"/>
<path d="M652 104V102H620V104H622V106H616V112H614V110H612V142H614V140H616V146H622V148H620V150H652V148H650V146H656V140H658V142H660V110H658V112H656V106H650V104H652ZM648 104V108H654V114H658V138H654V144H648V148H624V144H618V138H614V114H618V108H624V104H648Z" fill="white"/>
<path d="M710 106V102H686V106H678V114H674V138H678V146H686V150H710V146H718V138H722V114H718V106H710ZM710 110V108H716V114H714V110H710ZM710 112H712V114H710V112ZM708 104V116H720V136H708V148H688V136H676V116H688V104H708ZM714 138H716V144H710V142H714V138ZM710 138H712V140H710V138ZM680 108H686V110H682V114H680V108ZM684 112H686V114H684V112ZM680 138H682V142H686V144H680V138ZM684 138H686V140H684V138Z" fill="white"/>
<path d="M774 102V106H766V102H754V106H746V102H736V112H740V120H736V132H740V140H736V150H746V146H754V150H766V146H774V150H784V140H780V132H784V120H780V112H784V102H774ZM780 110V106H776V104H782V110H780ZM764 104V108H778V122H782V130H778V144H764V148H756V144H742V130H738V122H742V108H756V104H764ZM782 142V148H776V146H780V142H782ZM738 110V104H744V106H740V110H738ZM740 146H744V148H738V142H740V146Z" fill="white"/>
<path d="M840 104V102H804V104H806V106H802V110H800V108H798V144H800V142H802V146H806V148H804V150H840V148H838V146H842V142H844V144H846V108H844V110H842V106H838V104H840ZM836 106H834V114H842V112H844V140H842V138H834V146H836V148H808V146H810V138H802V140H800V112H802V114H810V106H808V104H836V106ZM836 112V108H840V112H836ZM840 140V144H836V140H840ZM804 112V108H808V112H804ZM808 140V144H804V140H808Z" fill="white"/>
<path d="M902 104V102H866V104H868V106H864V110H862V108H860V144H862V142H864V146H868V148H866V150H902V148H900V146H904V142H906V144H908V108H906V110H904V106H900V104H902ZM896 108H902V114H896V108ZM898 104V106H894V116H904V112H906V140H904V136H894V146H898V148H870V146H874V136H864V140H862V112H864V116H874V106H870V104H898ZM896 138H902V144H896V138ZM866 108H872V114H866V108ZM866 138H872V144H866V138Z" fill="white"/>
<path d="M958 106V102H938V106H934V102H924V112H928V116H924V136H928V140H924V150H934V146H938V150H958V146H962V150H972V140H968V136H972V116H968V112H972V102H962V106H958ZM966 110V118H970V134H966V142H970V148H964V144H956V148H940V144H932V148H926V142H930V134H926V118H930V110H926V104H932V108H940V104H956V108H964V104H970V110H966Z" fill="white"/>
<path d="M1020 106V102H1000V106H994V102H986V110H990V116H986V136H990V142H986V150H994V146H1000V150H1020V146H1026V150H1034V142H1030V136H1034V116H1030V110H1034V102H1026V106H1020ZM1028 108V104H1032V108H1028V118H1032V134H1028V144H1032V148H1028V144H1018V148H1002V144H992V148H988V144H992V134H988V118H992V108H988V104H992V108H1002V104H1018V108H1028Z" fill="white"/>
<path d="M598 164H550V212H598V164ZM552 166H596V210H552V166Z" fill="white"/>
<path d="M656 168V164H616V168H612V208H616V212H656V208H660V168H656ZM654 166V170H658V206H654V210H618V206H614V170H618V166H654ZM652 172V168H620V172H616V204H620V208H652V204H656V172H652ZM650 170V174H654V202H650V206H622V202H618V174H622V170H650Z" fill="white"/>
<path d="M678 212V208H674V212H678ZM674 164V168H678V164H674ZM722 212V208H718V212H722ZM716 170V164H680V170H674V206H680V212H716V206H722V170H716ZM716 174V172H720V204H716V202H712V206H714V210H682V206H684V202H680V204H676V172H680V174H684V170H682V166H714V170H712V174H716ZM718 164V168H722V164H718Z" fill="white"/>
<path d="M742 212V206H736V212H742ZM740 208V210H738V208H740ZM736 164V170H742V164H736ZM738 168V166H740V168H738ZM784 212V206H778V212H784ZM782 208V210H780V208H782ZM778 164V170H784V164H778ZM780 168V166H782V168H780ZM776 172V164H744V172H736V204H744V212H776V204H784V172H776ZM774 166V174H782V202H774V210H746V202H738V174H746V166H774Z" fill="white"/>
<path d="M838 166V164H806V166H804V164H798V170H800V172H798V204H800V206H798V212H804V210H806V212H838V210H840V212H846V206H844V204H846V172H844V170H846V164H840V166H838ZM838 168H840V170H842V172H838V168ZM842 168V166H844V168H842ZM836 166V174H844V202H836V210H808V202H800V174H808V166H836ZM844 208V210H842V208H844ZM842 206H840V208H838V204H842V206ZM800 168V166H802V168H800ZM804 168H806V172H802V170H804V168ZM802 206V204H806V208H804V206H802ZM802 208V210H800V208H802Z" fill="white"/>
<path d="M900 168V164H868V168H866V164H860V170H864V172H860V204H864V206H860V212H866V208H868V212H900V208H902V212H908V206H904V204H908V172H904V170H908V164H902V168H900ZM904 168V166H906V168H904ZM900 172V170H902V172H900ZM898 166V174H906V202H898V210H870V202H862V174H870V166H898ZM906 208V210H904V208H906ZM900 206V204H902V206H900ZM862 168V166H864V168H862ZM866 170H868V172H866V170ZM866 206V204H868V206H866ZM864 208V210H862V208H864Z" fill="white"/>
<path d="M964 164V166H932V164H924V172H926V204H924V212H932V210H964V212H972V204H970V172H972V164H964ZM964 168V172H968V204H964V208H932V204H928V172H932V168H964ZM966 170V166H970V170H966ZM970 206V210H966V206H970ZM926 170V166H930V170H926ZM930 206V210H926V206H930Z" fill="white"/>
<path d="M1026 164V166H994V164H986V172H988V204H986V212H994V210H1026V212H1034V204H1032V172H1034V164H1026ZM1028 170V166H1032V170H1028ZM1026 168V172H1030V204H1026V208H994V204H990V172H994V168H1026ZM1032 206V210H1028V206H1032ZM988 170V166H992V170H988ZM992 206V210H988V206H992Z" fill="white"/>
<path d="M598 274V226H550V274H598ZM590 228V230H588V228H590ZM590 232V234H592V238H596V262H592V266H590V268H586V272H562V268H558V266H556V262H552V238H556V234H558V232H562V228H586V232H590ZM594 236V234H596V236H594ZM592 232V228H596V232H592ZM596 268V272H592V268H596ZM596 264V266H594V264H596ZM588 272V270H590V272H588ZM552 236V234H554V236H552ZM552 232V228H556V232H552ZM560 228V230H558V228H560ZM554 264V266H552V264H554ZM558 272V270H560V272H558ZM556 268V272H552V268H556Z" fill="white"/>
<path d="M656 230V226H616V230H612V270H616V274H656V270H660V230H656ZM654 228V232H658V236H654V232H650V228H654ZM648 228V234H652V238H658V262H652V266H648V272H624V266H620V262H614V238H620V234H624V228H648ZM658 264V268H654V272H650V268H654V264H658ZM614 236V232H618V228H622V232H618V236H614ZM618 264V268H622V272H618V268H614V264H618Z" fill="white"/>
<path d="M722 274V226H674V274H722ZM718 236V230H712V228H720V236H718ZM710 228V232H716V238H720V262H716V268H710V272H686V268H680V262H676V238H680V232H686V228H710ZM720 264V272H712V270H718V264H720ZM676 236V228H684V230H678V236H676ZM678 264V270H684V272H676V264H678Z" fill="white"/>
<path d="M742 274V268H736V274H742ZM740 270V272H738V270H740ZM742 234H740V266H742V234ZM736 226V232H742V226H736ZM738 230V228H740V230H738ZM738 234H736V266H738V234ZM776 270V268H744V270H776ZM776 274V272H744V274H776ZM784 274V268H778V274H784ZM782 270V272H780V270H782ZM784 234H782V266H784V234ZM778 226V232H784V226H778ZM780 230V228H782V230H780ZM776 232V230H744V232H776ZM780 234H778V266H780V234ZM776 228V226H744V228H776Z" fill="white"/>
<path d="M836 226V230H808V226H798V236H802V264H798V274H808V270H836V274H846V264H842V236H846V226H836ZM842 230H838V228H844V234H842V230ZM836 232V234H808V232H836ZM838 234V232H840V234H838ZM838 236H840V264H838V236ZM844 266V272H838V270H842V266H844ZM838 268V266H840V268H838ZM836 266V268H808V266H836ZM836 236V264H808V236H836ZM800 234V228H806V230H802V234H800ZM804 232H806V234H804V232ZM804 236H806V264H804V236ZM804 268V266H806V268H804ZM806 270V272H800V266H802V270H806Z" fill="white"/>
<path d="M902 228V226H866V228H862V232H860V268H862V272H866V274H902V272H906V268H908V232H906V228H902ZM902 230H904V232H902V230ZM900 228V230H896V238H904V234H906V266H904V262H896V270H900V272H868V270H872V262H864V266H862V234H864V238H872V230H868V228H900ZM898 236V232H900V234H902V236H898ZM902 268H904V270H902V268ZM902 266H900V268H898V264H902V266ZM864 230H866V232H864V230ZM866 236V234H868V232H870V236H866ZM870 264V268H868V266H866V264H870ZM864 268H866V270H864V268Z" fill="white"/>
<path d="M972 274V226H924V274H972ZM964 228V234H970V266H964V272H932V266H926V234H932V228H964ZM966 228H970V232H966V228ZM966 268H970V272H966V268ZM926 228H930V232H926V228ZM926 268H930V272H926V268Z" fill="white"/>
<path d="M990 270V274H992V268H986V270H990ZM986 230V232H992V226H990V230H986ZM1034 270V268H1028V274H1030V270H1034ZM1024 228V230H996V228H994V234H988V236H990V264H988V266H994V272H996V270H1024V272H1026V266H1032V264H1030V236H1032V234H1026V228H1024ZM1024 236H1028V264H1024V268H996V264H992V236H996V232H1024V236ZM1030 230V226H1028V232H1034V230H1030Z" fill="white"/>
<path d="M85 553C85 551.895 84.1046 551 83 551H45C43.8954 551 43 551.895 43 553V591C43 592.105 43.8954 593 45 593H83C84.1046 593 85 592.105 85 591V553Z" fill="white" fill-opacity="0.8"/>
<path d="M86 548C87.1046 548 88 548.895 88 550V594C88 595.105 87.1046 596 86 596H42C40.8954 596 40 595.105 40 594V550C40 548.895 40.8954 548 42 548H86ZM43 549C41.8954 549 41 549.895 41 551V593C41 594.105 41.8954 595 43 595H85C86.1046 595 87 594.105 87 593V551C87 549.895 86.1046 549 85 549H43Z" fill="white" fill-opacity="0.8"/>
<path d="M85 549C86.1046 549 87 549.895 87 551V593C87 594.105 86.1046 595 85 595H43C41.8954 595 41 594.105 41 593V551C41 549.895 41.8954 549 43 549H85ZM45 551C43.8954 551 43 551.895 43 553V591C43 592.105 43.8954 593 45 593H83C84.1046 593 85 592.105 85 591V553C85 551.895 84.1046 551 83 551H45Z" fill="white" fill-opacity="0.45"/>
<defs>
<linearGradient id="paint0_linear_14_222" x1="700" y1="681" x2="748" y2="681" gradientUnits="userSpaceOnUse">
<stop stop-color="white" stop-opacity="0"/>
<stop offset="1" stop-color="white"/>
</linearGradient>
<linearGradient id="paint1_linear_14_222" x1="700" y1="677" x2="748" y2="677" gradientUnits="userSpaceOnUse">
<stop stop-color="white" stop-opacity="0"/>
<stop offset="1" stop-color="white"/>
</linearGradient>
<linearGradient id="paint2_linear_14_222" x1="820" y1="681" x2="868" y2="681" gradientUnits="userSpaceOnUse">
<stop stop-color="white" stop-opacity="0"/>
<stop offset="1" stop-color="white"/>
</linearGradient>
<linearGradient id="paint3_linear_14_222" x1="820" y1="677" x2="868" y2="677" gradientUnits="userSpaceOnUse">
<stop stop-color="white" stop-opacity="0"/>
<stop offset="1" stop-color="white"/>
</linearGradient>
<linearGradient id="paint4_linear_14_222" x1="940" y1="681" x2="988" y2="681" gradientUnits="userSpaceOnUse">
<stop stop-color="white" stop-opacity="0"/>
<stop offset="1" stop-color="white"/>
</linearGradient>
<linearGradient id="paint5_linear_14_222" x1="940" y1="677" x2="988" y2="677" gradientUnits="userSpaceOnUse">
<stop stop-color="white" stop-opacity="0"/>
<stop offset="1" stop-color="white"/>
</linearGradient>
<linearGradient id="paint6_linear_14_222" x1="700" y1="721" x2="748" y2="721" gradientUnits="userSpaceOnUse">
<stop stop-color="white" stop-opacity="0"/>
<stop offset="1" stop-color="white"/>
</linearGradient>
<linearGradient id="paint7_linear_14_222" x1="700" y1="717" x2="748" y2="717" gradientUnits="userSpaceOnUse">
<stop stop-color="white" stop-opacity="0"/>
<stop offset="1" stop-color="white"/>
</linearGradient>
<linearGradient id="paint8_linear_14_222" x1="820" y1="721" x2="868" y2="721" gradientUnits="userSpaceOnUse">
<stop stop-color="white" stop-opacity="0"/>
<stop offset="1" stop-color="white"/>
</linearGradient>
<linearGradient id="paint9_linear_14_222" x1="915" y1="730" x2="915" y2="722" gradientUnits="userSpaceOnUse">
<stop stop-color="white" stop-opacity="0"/>
<stop offset="1" stop-color="white"/>
</linearGradient>
<linearGradient id="paint10_linear_14_222" x1="915" y1="708" x2="915" y2="716" gradientUnits="userSpaceOnUse">
<stop stop-color="white" stop-opacity="0"/>
<stop offset="1" stop-color="white"/>
</linearGradient>
<linearGradient id="paint11_linear_14_222" x1="820" y1="717" x2="868" y2="717" gradientUnits="userSpaceOnUse">
<stop stop-color="white" stop-opacity="0"/>
<stop offset="1" stop-color="white"/>
</linearGradient>
<linearGradient id="paint12_linear_14_222" x1="940" y1="721" x2="988" y2="721" gradientUnits="userSpaceOnUse">
<stop stop-color="white" stop-opacity="0"/>
<stop offset="1" stop-color="white"/>
</linearGradient>
<linearGradient id="paint13_linear_14_222" x1="1020" y1="729" x2="1034" y2="729" gradientUnits="userSpaceOnUse">
<stop stop-color="white" stop-opacity="0"/>
<stop offset="1" stop-color="white"/>
</linearGradient>
<linearGradient id="paint14_linear_14_222" x1="1020" y1="709" x2="1034" y2="709" gradientUnits="userSpaceOnUse">
<stop stop-color="white" stop-opacity="0"/>
<stop offset="1" stop-color="white"/>
</linearGradient>
<linearGradient id="paint15_linear_14_222" x1="940" y1="717" x2="988" y2="717" gradientUnits="userSpaceOnUse">
<stop stop-color="white" stop-opacity="0"/>
<stop offset="1" stop-color="white"/>
</linearGradient>
</defs>
</svg>
